<?xml version="1.0" encoding="UTF-8"?>
<!DOCTYPE svg PUBLIC "-//W3C//DTD SVG 1.1//EN" "http://www.w3.org/Graphics/SVG/1.1/DTD/svg11.dtd">
<!-- Creator: CorelDRAW 2020 (64 Bit) -->
<svg xmlns="http://www.w3.org/2000/svg" xml:space="preserve" width="400px" height="400px" version="1.1" style="shape-rendering:geometricPrecision; text-rendering:geometricPrecision; image-rendering:optimizeQuality; fill-rule:evenodd; clip-rule:evenodd"
viewBox="0 0 400 400"
 xmlns:xlink="http://www.w3.org/1999/xlink"
 xmlns:xodm="http://www.corel.com/coreldraw/odm/2003">
 <defs>
  <style type="text/css">
   <![CDATA[
    .str3 {stroke:#D34600;stroke-width:3.13;stroke-miterlimit:22.9256}
    .str2 {stroke:#D34600;stroke-width:2.36;stroke-miterlimit:22.9256}
    .str1 {stroke:#F38306;stroke-width:2.36;stroke-miterlimit:22.9256}
    .str0 {stroke:#FCA209;stroke-width:2.36;stroke-miterlimit:22.9256}
    .fil0 {fill:none}
    .fil7 {fill:none;fill-rule:nonzero}
    .fil5 {fill:#090909}
    .fil10 {fill:#630C03}
    .fil16 {fill:#660D03}
    .fil14 {fill:#6D1206}
    .fil8 {fill:#6F1506}
    .fil20 {fill:#721906}
    .fil18 {fill:#760100}
    .fil12 {fill:#7C1D09}
    .fil11 {fill:#D34600}
    .fil17 {fill:#E27513}
    .fil9 {fill:#E68215}
    .fil13 {fill:#F18106}
    .fil4 {fill:#F38306}
    .fil15 {fill:#F48D05}
    .fil3 {fill:#FEB709}
    .fil1 {fill:#FF7B09}
    .fil19 {fill:#FFA109}
    .fil2 {fill:#FFA209}
    .fil6 {fill:#D34600;fill-rule:nonzero}
   ]]>
  </style>
 </defs>
 <g id="Camada_x0020_1">
  <metadata id="CorelCorpID_0Corel-Layer"/>
  <g id="_2670075731584">
   <path class="fil0" d="M142.07 233.13l46.96 -80.13 46.97 80.13 -93.93 0zm23.48 -40.07m46.97 0m-23.49 40.07"/>
   <line class="fil0 str0" x1="202.69" y1="176.43" x2="169.42" y2= "232.99" />
   <line class="fil0 str0" x1="212.39" y1="193" x2="188.97" y2= "233.04" />
   <polygon class="fil1" points="189.03,233.13 236,233.13 212.45,192.95 "/>
   <polygon class="fil2" points="189.01,233.15 212.43,192.97 202.72,176.41 169.32,233.15 "/>
   <polygon class="fil3" points="169.34,233.13 202.74,176.38 189.03,153 142.07,233.13 "/>
   <polygon class="fil4" points="183.99,197.6 183.96,201.71 185.53,201.7 185.42,197.63 "/>
   <polygon class="fil4" points="183.82,204.52 183.75,209.63 185.76,209.68 185.61,204.51 "/>
   <polygon class="fil4" points="183.85,212.52 183.76,217.61 186.04,217.66 186.01,212.51 "/>
   <path class="fil4" d="M183.42 220.34c-0.02,0.94 -0.04,1.88 -0.06,2.82 0.16,0.28 0.14,0.45 -0.01,0.52l-0.04 1.75 2.83 0.05 -0.05 -5.15 -2.67 0.01z"/>
   <path class="fil5" d="M202.67 214.57c-0.08,-1.65 0.44,-4.2 0.9,-5.8 0.23,-0.8 0.19,-0.99 1.11,-1.14 0.96,-0.17 0.95,-0.1 0.82,1.39 -0.13,1.42 -0.43,4.45 -1.04,5.56l-1.79 -0.01zm-28.94 -24.23c0.04,-0.46 0.48,-1.17 0.7,-1.61 0.18,-0.39 0.44,-1.27 0.83,-1.48 0.23,0.16 0.11,0.05 0.31,0.59 1.05,2.86 1.18,1.59 0.07,3.58 -0.43,0.02 -1.52,-0.8 -1.91,-1.08zm16.02 -10.77c0.05,-0.37 2.49,-4.77 2.63,-4.87 0.22,0.06 0.16,0.04 0.31,0.19l2.95 3.61c0.61,0.73 0.37,0.29 0.52,1.26 0.07,0.41 0.47,0.73 0.73,1.01l7.52 8.27c1.07,1.18 0.6,0.82 0.59,0.87 0,0.02 -0.02,0.09 -0.02,0.07 0,-0.02 0.01,0.18 -0.3,0.12l-1.55 -1.31c-1.65,-1.35 -3.8,-2.96 -5.57,-4.13 -1.32,-0.87 -2.51,-1.7 -3.89,-2.57 -0.62,-0.39 -1.33,-0.83 -1.98,-1.25 -0.35,-0.22 -1.68,-0.94 -1.94,-1.27zm-12.31 8.68c-0.31,-0.36 -0.66,-1.26 -0.9,-1.77 -0.54,-1.13 -0.69,-0.88 0.09,-1.73 0.42,-0.47 0.89,-1.19 1.32,-1.33 0.38,-0.12 0.21,0.14 0.79,-0.55l4.35 -4.98c0.79,-0.87 0.79,-1.17 1.47,-1.24 -0.1,0.67 -3.09,5.26 -3.52,5.94l-3.07 5.02c-0.47,0.77 -0.21,0.52 -0.53,0.64zm23.51 22.42c-0.02,0.23 -0.04,0.42 -0.06,0.68 -0.08,0.92 -0.23,4.67 -0.32,4.85 -0.09,0.11 -0.54,0.11 -0.67,0.11 -0.22,0 -0.45,-0.01 -0.67,-0.01 -1.68,-0.01 -3.69,1.9 -3.77,3.5 -0.1,1.94 0.02,3.99 1.71,5.21 0.6,0.43 0.49,0.16 0.62,0.51 -0.18,0.32 -1.71,0.93 -2.1,3.13 -0.39,2.17 0.56,3.67 0.62,4.48l32.08 0c0.05,-0.5 0.43,-0.9 0.61,-1.34 0.56,-1.44 0.28,-3.56 -0.32,-4.82 -0.39,-0.81 -1.01,-1.51 -1.88,-1.93 -1.93,-0.93 -2.7,-0.16 -2.99,-0.76 0.11,-0.18 -0.13,-0.25 0.81,-0.23 1.4,0.04 5.11,0.15 6,-0.21 0.89,-1.07 0.66,-4.12 0.66,-6.12 0,-2.84 0.17,-3.51 -0.67,-6.17 -0.25,-0.78 -0.68,-1.66 -1.09,-2.34 -1.18,-1.95 -3.13,-3.79 -4.51,-5.86 -1.04,0 -5.98,0.15 -6.47,-0.09 -0.36,0.56 -0.32,-0.31 -0.73,0.88 -0.14,0.41 -0.3,0.81 -0.47,1.14 -3.9,0.15 -2.9,0.3 -4.13,-1.82l-2.2 -0.02 -0.82 -3.14 -5.87 -13.65 -6.57 -7.59c-0.87,-0.98 -0.62,-0.51 -1.27,-0.55 -0.62,-0.91 -1.52,-1.87 -2.21,-2.73 -0.78,-0.96 -1.46,-1.78 -2.2,-2.74 -0.23,-0.31 -1.02,-0.77 -1.48,-0.99 -0.84,-0.4 -2.22,0.58 -3.43,1.17 -2.66,1.3 -2.61,0.42 -4.57,2.84 -0.71,0.88 -1.5,1.81 -2.25,2.7l-2.8 3.39c-0.26,0.5 0,0.37 -0.42,0.81 -0.4,0.42 -0.83,0.82 -1.22,1.25 -0.42,0.46 -0.16,0.27 -0.81,0.43 -1.01,0.25 -0.57,1.59 -0.57,1.69 0,0.42 -1.99,3.43 -2.29,3.91 -1.06,1.75 -0.82,1.66 -2.2,2.75 -0.68,0.54 -2.22,1.61 -2.64,2.31 -1.78,2.94 0.06,5.06 1.39,7.11 0.63,0.96 1.28,1.98 1.92,3.02 0.46,0.76 1.47,2.8 2.08,2.88 0.04,-0.72 -0.37,-0.83 -0.43,-1.58 0.61,0.16 0.07,0.14 0.62,0.38 0.29,-0.44 -0.15,-0.68 -0.27,-1.28 0.57,0.05 0.12,0.16 0.68,0.3 0.02,-0.77 -0.3,-0.61 -0.31,-1.26 0.46,0.09 0.23,0.25 0.64,0.36 0.06,-0.55 -0.08,-0.31 -0.2,-0.83l0.45 -0.19c-0.24,-1.06 -0.35,-0.71 -0.08,-1.94 0.13,-0.63 0.2,-1.36 0.33,-1.96 0.18,-0.79 0.8,-5.27 1.12,-5.64l3.51 -3.24c0.94,-0.83 9.2,-8.61 9.45,-8.6 0.45,0.19 2.2,1.72 2.66,2.08 3.23,2.58 10.18,8.37 12.2,11.37 1.02,1.5 2.44,4.9 2.38,7.1 -1.17,0.09 -1.56,0 -2.42,0.62 -1.67,1.23 -1.94,4.7 -2.16,6.67z"/>
   <polygon class="fil4 str1" points="155.46,232.13 152.54,230.27 151.43,230.72 151.46,232.75 151.46,233.02 160.77,233.02 160.77,226.73 "/>
   <polygon class="fil6" points="170.41,211.3 158.13,233.15 157.87,233.15 170.22,211.19 "/>
   <path class="fil6" d="M170.45 211.32l-12.28 21.83 -0.09 0 12.27 -21.84 -0.12 -0.07 -12.31 21.91 -0.1 0c4.12,-7.34 8.25,-14.68 12.38,-22.02l0.27 0.15 -0.02 0.04z"/>
   <polygon class="fil6" points="160.55,233.13 172.86,211.4 173.06,211.51 160.81,233.13 "/>
   <path class="fil6" d="M160.51 233.1l12.33 -21.76 0.27 0.16c-4.09,7.22 -8.16,14.45 -12.27,21.65l-0.36 0 0.03 -0.05zm12.37 -21.64l-12.26 21.62 0.16 0 12.22 -21.55 -0.12 -0.07z"/>
   <line class="fil7 str2" x1="170.84" y1="211.16" x2="172.31" y2= "212.63" />
   <line class="fil7 str2" x1="169.83" y1="212.39" x2="171.48" y2= "214.04" />
   <line class="fil7 str2" x1="169.09" y1="213.71" x2="170.73" y2= "215.36" />
   <line class="fil7 str2" x1="168.31" y1="215.09" x2="169.95" y2= "216.73" />
   <line class="fil7 str2" x1="167.54" y1="216.46" x2="169.2" y2= "218.08" />
   <line class="fil7 str2" x1="166.79" y1="217.8" x2="168.45" y2= "219.42" />
   <line class="fil7 str2" x1="166.06" y1="219.11" x2="167.7" y2= "220.75" />
   <line class="fil7 str2" x1="165.29" y1="220.46" x2="166.94" y2= "222.11" />
   <line class="fil7 str2" x1="164.5" y1="221.87" x2="166.13" y2= "223.49" />
   <line class="fil7 str2" x1="163.81" y1="223.1" x2="165.44" y2= "224.73" />
   <line class="fil7 str2" x1="163.03" y1="224.49" x2="164.67" y2= "226.14" />
   <line class="fil7 str2" x1="159.24" y1="231.22" x2="160.85" y2= "232.83" />
   <line class="fil7 str2" x1="160.01" y1="229.85" x2="161.61" y2= "231.45" />
   <polygon class="fil6" points="171.28,211.56 158.83,233.13 158.57,233.13 171.09,211.45 "/>
   <line class="fil7 str2" x1="170.1" y1="212.66" x2="172.23" y2= "212.66" />
   <line class="fil7 str2" x1="169.35" y1="213.97" x2="171.48" y2= "213.97" />
   <line class="fil7 str2" x1="168.52" y1="215.3" x2="170.73" y2= "215.3" />
   <line class="fil7 str2" x1="167.71" y1="216.63" x2="169.95" y2= "216.63" />
   <line class="fil7 str2" x1="166.92" y1="217.93" x2="169.08" y2= "217.93" />
   <line class="fil7 str2" x1="166.32" y1="219.37" x2="168.45" y2= "219.37" />
   <line class="fil7 str2" x1="165.55" y1="220.72" x2="167.7" y2= "220.72" />
   <line class="fil7 str2" x1="164.78" y1="222.15" x2="166.94" y2= "222.15" />
   <line class="fil7 str2" x1="164.1" y1="223.4" x2="166.13" y2= "223.4" />
   <line class="fil7 str2" x1="162.74" y1="226.13" x2="164.67" y2= "226.13" />
   <line class="fil7 str2" x1="159.6" y1="231.57" x2="161.61" y2= "231.57" />
   <line class="fil7 str2" x1="158.81" y1="232.94" x2="160.85" y2= "232.94" />
   <line class="fil7 str2" x1="162.27" y1="225.83" x2="163.91" y2= "227.46" />
   <line class="fil7 str2" x1="163.24" y1="224.7" x2="165.44" y2= "224.7" />
   <line class="fil7 str2" x1="162" y1="227.4" x2="163.84" y2= "227.4" />
   <line class="fil7 str2" x1="161.63" y1="226.98" x2="163.17" y2= "228.73" />
   <line class="fil7 str3" x1="160.77" y1="228.51" x2="162.4" y2= "230.14" />
   <path class="fil8" d="M150.98 217.92c1,0.8 5.45,-1.28 5.15,1.37 -0.04,0.36 0.03,0.2 -0.26,0.39l-0.15 2.18c-0.33,0.13 -0.37,-0.08 -0.56,0.24 -0.21,0.36 0.05,0.2 -0.03,0.58 -0.01,0.04 -0.53,0.84 -0.61,0.98 -0.26,0.39 -2.63,4.04 -3.12,4.05l-0.01 -2.44 -0.72 -0.37c0.07,-1.2 0.51,-1.28 0.37,-2.54 -0.85,-0.59 -0.83,-0.62 -1.88,-0.17 -0.17,1.12 -0.01,0.93 0.15,1.95l0.22 0.85 -0.78 0.3c-0.03,0.5 -0.14,1.79 0.1,2.15 0.98,1.48 5.66,4.43 7.33,4.92 0.11,0.03 4.09,-4.07 4.73,-4.69l0.68 -0.71c0.27,1.82 0.35,4.21 0.35,6.17l0.7 0c0,-1.08 -0.07,-2.01 -0.01,-3.09 0.21,-3.81 -2.71,-5.17 -5.51,-7.04 0,-0.71 -0.24,-1.27 0.34,-1.39 0.27,-0.06 0.15,-1.55 0.15,-1.85l-0.49 -0.21c-0.05,-0.54 0.06,-1.16 -0.13,-1.59 -0.74,-1.62 -4.52,-0.24 -5.54,-0.85l-0.47 0.81z"/>
   <path class="fil9" d="M194.32 220.13l1 -0.02 0.11 -1.1c0,-0.41 -0.01,-0.84 -0.01,-1.24 -0.01,-0.83 0.01,-1.66 0,-2.48 -0.03,-2.14 -2.82,-1.27 -3.44,-1.56 -0.48,-0.23 -0.31,-0.98 -0.31,-1.96 -0.01,-1.08 -0.13,-6.76 0.01,-6.99 0.63,-0.46 2.77,-0.24 3.76,-0.23 0.99,0.01 3.09,-0.21 3.77,0.21 0.1,0.43 0.1,1.17 0.01,1.59 -0.33,0.16 -0.6,0.16 -0.96,0.34 -1.1,0.57 -1.63,1.59 -1.32,2.99 0.71,0.04 3.7,0.18 4.12,0.01 0.09,-0.49 0.24,-1.3 0.32,-1.8l0.19 -1.28c-0.34,0.07 -0.81,-0.18 -1.14,-0.39 -0.04,-1.23 0.15,-2.05 -0.96,-2.47 -0.45,-0.16 -5.87,-0.06 -6.79,-0.07 -0.7,0 -0.99,-0.06 -1.46,0.26 -0.29,0.2 -0.65,0.54 -0.71,0.99 -0.1,0.87 0,2.47 0,3.42 0,1.14 0,2.28 0,3.42 0,1.34 -0.27,2.15 0.76,2.67 0.97,0.5 2.44,0.06 2.97,0.5l0.08 5.19z"/>
   <path class="fil10" d="M190.08 216.37c-1.12,0.51 -0.88,1.65 -0.88,2.94 0,1.3 0,2.6 0,3.9 0,3.52 -0.04,1.49 0.52,3.38 0.35,1.14 0.14,2.21 -0.48,3.13l0.04 0.74c0.01,0.37 3.45,0.11 3.93,0.11 0.18,0 -0.07,-0.6 0.09,-1.23 1.12,-0.1 0.74,0.15 0.99,-0.23 -0.17,-0.53 -0.43,-0.19 -1.06,-0.34 -0.25,-2.67 0.7,-0.82 1.09,-1.76 -0.16,-0.36 0.05,-0.18 -1,-0.24l-0.03 -1.19 1 -0.06 0 -0.22 -0.03 -0.26c0,-0.05 -0.22,0.01 -0.51,-0.01 -0.14,-0.01 -0.3,0.02 -0.5,0 -0.52,-2.04 0.62,-1.53 1.01,-1.67 -0.17,-1.12 -1.09,0.57 -1.07,-1.2 0.01,-0.93 0.2,-0.63 0.65,-0.69 0.55,-0.08 0.69,-0.4 0.28,-0.47 -0.07,-0.01 -0.21,0.06 -0.83,-0.01l0.05 -1.14 1.99 -0.09c0,0.89 -0.08,1.67 0.11,2.54 0.03,0.11 0.08,0.36 0.15,0.42 -0.05,-0.68 -0.16,-1.05 -0.15,-1.89 0.01,-0.8 0.04,-1.05 0.21,-1.51 0.02,-0.06 0.05,-0.12 0.08,-0.18 0.02,-0.04 0.04,-0.08 0.06,-0.12 0,-0.01 0.01,-0.01 0.01,-0.02 0,-0.01 0.01,-0.01 0.01,-0.02 0.01,-0.01 0.01,-0.02 0.02,-0.03 0,-0.01 0,-0.01 0,-0.01 0,0 0,0 0,0 0.02,-0.15 -0.32,0.11 -0.49,0.14 -0.52,-0.02 -1.69,0.18 -2.01,-0.1 -0.27,-0.41 0.37,-2.19 -0.96,-2.6 -0.93,-0.23 -1.37,-0.22 -2.29,-0.01z"/>
   <path class="fil11" d="M174.41 233.13l4.12 0.02c0,-0.26 -0.04,-0.42 0.04,-0.51l0 -0.21c-0.14,0.01 -0.26,-0.25 -0.36,-0.25 -0.42,0.04 -1.41,0.02 -2.44,0.03 -0.48,0 -1.02,0.19 -1.39,0.25l0.03 0.67z"/>
   <path class="fil12" d="M173.49 233.14l1 0 -0.03 -0.67c0.45,-0.08 7.35,-0.04 7.58,0.04l0.04 0.63 1.08 0c-0.01,-0.97 0.13,-0.52 0.95,-0.74 0.45,-0.13 0.69,-0.29 0.97,-0.65 0.64,-0.82 0.09,-1.82 -0.65,-2.07 -1.33,-0.55 -4.55,0.08 -6.18,-0.22 0.01,-0.22 0.15,-0.31 0.17,-0.42 0.01,-0.09 0.01,-0.24 -0.07,-0.35l-1.86 -0.01c-0.01,0.02 -0.22,0.12 -0.23,0.14l0.28 0.41 -1.11 0.2c-0.02,-0.52 0.11,-1.2 -0.15,-1.51 -0.87,-1.03 -3.12,-0.66 -4.51,-0.23l-0.12 0.43c0.79,0.29 3.53,-0.18 4.04,0.41 0.18,0.23 0.26,0.54 0.23,0.88 -0.65,0.16 -1.63,0.01 -2.34,0.13 -1.48,0.25 -2.41,2.47 0.48,2.82 0.61,0.08 0.46,0.11 0.43,0.78z"/>
   <path class="fil8" d="M181.85 223.96c-1.56,0.68 -3.31,1.66 -3.45,3.56 -0.05,0.59 -0.02,1.09 0.34,1.51 0.37,0.11 2.08,0.12 2.45,0.01 0.08,-1.84 0.34,-1.55 3.45,-1.55 0.73,0 4.39,0.08 4.78,-0.06 0.06,-0.8 -0.56,-1.73 -1.11,-2.25 -0.66,-0.65 -1.57,-1.09 -2.45,-1.35 -0.39,-0.12 -0.76,-0.16 -1.16,-0.27 -0.01,-0.36 0.1,-0.28 0.19,-0.65l-1.64 0c0.09,0.33 0.52,0.74 -0.14,0.84 -0.5,0.07 -0.78,0.12 -1.26,0.21z"/>
   <path class="fil4" d="M152.81 214.79l-0.01 2.14 0 0.34 2.95 -0.08 0.36 0.08c0.03,0.01 0.25,0.12 0.21,0.08 -0.11,-0.2 -0.14,-0.38 -0.17,-0.59 -0.01,-0.04 0,-0.4 0,-0.47 0.01,-0.35 -0.11,-0.9 0.21,-0.99 0.46,-0.13 2.56,-0.07 2.83,0.03 0.13,0.43 0.09,1.18 0.05,1.72 -0.37,0.35 -0.72,0.32 -0.83,0.97 -0.09,0.51 -0.05,5.1 0.06,5.56l-0.6 -0.09c0.35,0.26 2.89,2.03 2.95,2.12 -0.14,-0.52 -0.05,-0.07 -0.06,-0.53 -0.06,-1.77 0.23,-1.3 0.4,-1.7 0.33,-0.73 -0.63,0.02 -0.37,-1.76 0.08,-0.53 0.01,-0.16 0.28,-0.39 0.53,-0.47 -0.11,-0.45 -0.24,-0.79 -0.09,-0.19 -0.04,-1.12 -0.04,-1.39 0.01,-1.55 0.13,-1.24 -0.83,-2 -0.14,-1.09 0.37,-2.18 -0.79,-2.29l-2.29 0c-1.26,0 -0.63,-0.57 -0.72,-2.57 -0.06,-1.21 -0.69,-1.02 -0.95,-1.49l-1.24 2.01c-0.43,0.71 -0.77,1.36 -1.16,2.08z"/>
   <path class="fil13" d="M152.42 226.76c0.01,-0.01 0.73,-0.97 1.33,-1.83 0.43,-0.64 0.78,-1.23 0.82,-1.3 0.19,-0.3 0.09,-0.28 0.24,-0.51 0.15,-0.22 0.32,-0.2 0.37,-0.46 0.08,-0.38 -0.18,-0.22 0.03,-0.58 0.19,-0.33 0.23,-0.12 0.57,-0.25l0.15 -2.17c0.29,-0.2 0.22,-0.03 0.26,-0.39 0.21,-2 -1.76,-1.35 -3.44,-1.22 0,2.07 0.11,6.16 -0.33,8.71z"/>
   <path class="fil14" d="M185.57 231.79c1.61,-0.18 4,-2.05 3.83,-3.9 -1.05,-0.1 -6.92,-0.15 -7.61,0.1l0.01 1.02c1.35,0.09 3.03,-0.13 3.76,1.36 0.27,0.52 0.03,0.94 0.01,1.42z"/>
   <path class="fil15" d="M147.82 231.45l0.13 0.81 -1.25 0.04 1.12 -0.85zm-2.08 0.77l0.11 -1.31 1 0.65 -1.11 0.66zm0.47 -1.61l1.29 -0.89 0.28 1.27 -0.86 0.21 -0.71 -0.59zm-0.26 -0.33l0.22 -0.96 0.84 0.09 -1.06 0.87zm0.25 -3.06l0.87 0.54 -0.99 0.66 0.12 -1.2zm-0.29 -0.6l-0.2 1.79 -0.81 0.14 -0.01 0.68 0.69 0.1 -0.26 2.9c-0.19,0.06 -0.64,0.08 -0.89,0.13l-0.07 0.72 5.58 0 -0.01 -0.76 -1.43 -0.1 -0.55 -2.82 0.64 -0.17 0 -0.71 -0.83 -0.21 -0.19 -1.42 -0.44 -2.4 -0.6 1.03 -0.62 1.1z"/>
   <path class="fil10" d="M186.97 220.41l0.02 3.46c0.27,0.17 0.8,0.51 1.12,0.56 0.03,-0.84 0,-1.75 0,-2.59 0,-0.83 0.19,-1.86 -0.36,-2.26 -1.84,-0.55 -1.71,0.78 -1.7,-2.12 0,-0.44 -0.06,-1.49 0.04,-1.86 0.55,-0.22 3.82,-0.16 4.56,-0.1 0.04,0.06 0.08,0.51 0.1,0.61l1.26 -0.03c-0.11,-0.88 -0.48,-0.93 -0.6,-1.26 -1.08,-0.15 -5.95,-0.49 -6.34,0.59 -0.11,0.34 -0.04,2.82 -0.04,3.39 -0.02,1.84 1.11,1.27 1.62,1.41l0.32 0.2z"/>
   <polygon class="fil16" points="188.48,233.13 194.3,233.13 194.29,231.09 188.48,231.12 "/>
   <path class="fil17" d="M201.01 210.36c-0.32,-0.16 -2.95,-0.04 -3.63,-0.01 -0.74,0.03 -0.72,0.49 -0.52,2.34l3.77 0.04 0.19 -0.01 0.03 -0.52 0.02 -0.36 0.14 -1.48z"/>
   <path class="fil17" d="M200.59 216.12c-0.3,-0.16 -2.73,-0.03 -3.36,0 -0.7,0.02 -0.76,-0.32 -0.58,1.41 0.14,-0.1 0.27,-0.25 0.41,-0.36l0.44 -0.31c0.15,-0.1 0.71,-0.39 1.05,-0.47 0.41,-0.09 0.94,-0.08 1.38,-0.08 0.07,0 0.15,0 0.22,0 0.19,-0.01 0.36,-0.02 0.42,-0.11 0.01,0 0.01,-0.01 0.01,-0.02l0.01 -0.06z"/>
   <path class="fil17" d="M200.78 213.22c-0.32,-0.16 -2.88,-0.01 -3.55,0.01 -0.15,0.01 -0.27,0.03 -0.36,0.08 -0.37,0.2 -0.33,0.79 -0.17,2.27l3.77 0.03 0.17 -0.01 0.04 -0.51 0.02 -0.37 0.08 -1.5z"/>
   <path class="fil4" d="M184.73 196.42c0.8,-0.34 1.08,-1.03 2.41,-1.05 1.78,-0.02 2.4,2.2 4.66,2.03 0.91,-0.07 1.76,-0.76 1.87,-1.62 -0.63,0.11 -0.75,0.41 -1.39,0.45 -2.12,0.15 -1.91,-0.29 -3.54,-1.42 -0.79,-0.54 -1.63,-0.7 -2.51,-0.15 -0.51,0.33 -1.4,1.08 -1.5,1.76z"/>
   <path class="fil18" d="M165.86 227.76c-0.01,-0.39 0.12,-0.33 0.31,-0.54 0.33,-0.34 0.13,-0.33 0.3,-0.63 0.98,0.29 0.2,1.62 -0.61,1.17zm-0.16 -0.97c-1.08,0.05 -0.93,-0.9 -1.06,-0.26 -0.22,3.49 4.68,1.2 2.67,-0.42 -0.65,-0.52 -1.16,-0.34 -1.1,-1.46 -1.38,0.31 -1.04,1.12 -0.79,1.71 0.07,0.16 0.29,0.31 0.28,0.43z"/>
   <path class="fil18" d="M163.78 233.12l4.19 0 -0.02 -1.3 -1.2 -0.08c-0.12,-0.96 0.14,-2.81 -0.16,-3.23 -0.34,0.15 -0.17,-0.24 -0.26,0.42l0.01 3.52 -2.53 0.02 -0.03 0.65z"/>
   <path class="fil19" d="M198.98 213.76c-0.37,0.29 -0.44,0.8 -0.05,1.15 0.58,0.53 0.95,0.32 1.21,-0.07 0.88,-1.32 -0.57,-1.52 -1.16,-1.08z"/>
   <path class="fil20" d="M185.72 233.13l0.55 0 0 -1.15 -0.45 0.08c-0.27,0.05 -0.1,0.59 -0.1,1.07z"/>
  </g>
 </g>
</svg>
